<svg width="40" height="40" viewBox="0 0 40 40" fill="none" xmlns="http://www.w3.org/2000/svg">
<path d="M39.3152 7.15454C38.9511 3.74329 36.257 1.04858 32.8455 0.684814C24.2902 -0.228271 15.7098 -0.228271 7.15485 0.684814C3.74329 1.04889 1.04889 3.74329 0.684814 7.15454C-0.228271 15.7095 -0.228271 24.2902 0.684814 32.8452C1.04889 36.2567 3.74329 38.9511 7.15454 39.3152C15.7095 40.2283 24.2902 40.2283 32.8455 39.3152C36.257 38.9511 38.9511 36.2567 39.3152 32.8452C40.2283 24.2902 40.2283 15.7098 39.3152 7.15454Z" fill="url(#paint0_radial)"/>
<path d="M37.1394 8.60141C36.8165 5.57437 34.4258 3.18332 31.3984 2.86014C23.8069 2.0502 16.1927 2.0502 8.60117 2.86014C5.57413 3.18332 3.18307 5.57437 2.85989 8.60141C2.04996 16.193 2.04996 23.8071 2.85989 31.3983C3.18307 34.4257 5.57413 36.8167 8.60117 37.1396C16.1927 37.9499 23.8069 37.9499 31.3981 37.1396C34.4254 36.8167 36.8165 34.4257 37.1394 31.3983C37.9496 23.8071 37.9496 16.193 37.1394 8.60141Z" fill="url(#paint1_linear)"/>
<path d="M0.599609 32.016C0.627075 32.2925 0.655457 32.569 0.685059 32.8455C1.04913 36.2567 3.74353 38.9511 7.15509 39.3152C15.7101 40.2283 24.2907 40.2283 32.8457 39.3152C36.2573 38.9511 38.9514 36.2567 39.3154 32.8455C39.345 32.569 39.3734 32.2925 39.4012 32.016H0.599609Z" fill="url(#paint2_linear)"/>
<path d="M39.315 32.8452C39.8057 28.2483 40.0322 23.6441 39.9955 19.0405L30.8525 9.89747C29.7102 8.59345 28.0418 7.77955 26.0814 7.70905C22.0497 7.56379 18.0052 7.57111 13.9729 7.70966C10.6239 7.82502 8.28198 10.076 7.6814 13.3844C7.5755 13.9685 7.51202 14.5602 7.42871 15.1486V24.8477C7.47479 25.1621 7.54254 25.4749 7.5636 25.791C7.69788 27.8034 8.5249 29.527 9.84906 30.6931L19.1533 39.997C23.7193 40.029 28.2856 39.8019 32.8453 39.3152C36.2568 38.9511 38.9509 36.2567 39.315 32.8452Z" fill="url(#paint3_linear)"/>
<path d="M39.3154 32.8455C38.9516 36.2564 36.2566 38.9514 32.8456 39.3152C28.2866 39.8016 23.7194 40.029 19.1539 39.9969L9.86377 30.7068C10.9407 31.6495 12.3445 32.2235 13.9736 32.2849C18.0049 32.4362 22.0504 32.4323 26.0817 32.287C29.728 32.1552 32.3665 29.4565 32.4803 25.8102C32.6018 21.9388 32.6018 18.0573 32.4803 14.1858C32.4285 12.5037 31.838 11.0236 30.8589 9.90356L39.9962 19.0408C40.0322 23.6438 39.8058 28.2486 39.3154 32.8455Z" fill="url(#paint4_linear)"/>
<path d="M24.72 15.6686C23.5487 14.3933 21.8681 13.5931 20.0001 13.5931C16.4619 13.5931 13.5933 16.4618 13.5933 20C13.5933 21.868 14.3934 23.5486 15.6688 24.7198L30.4921 39.5432C31.2767 39.4748 32.0613 39.3988 32.8453 39.3152C36.2568 38.9511 38.9512 36.2567 39.3153 32.8452C39.3989 32.0612 39.4749 31.2766 39.5433 30.4919L24.72 15.6686Z" fill="url(#paint5_linear)"/>
<path d="M39.9227 24.3088L27.9927 12.3792C27.7144 12.0139 27.2759 11.7767 26.7812 11.7767C25.9395 11.7767 25.2568 12.4591 25.2568 13.3011C25.2568 13.7958 25.494 14.2343 25.8593 14.5126L39.7094 28.363C39.8033 27.012 39.8745 25.6604 39.9227 24.3088Z" fill="url(#paint6_linear)"/>
<path d="M7.42871 15.1486C7.51202 14.5602 7.5755 13.9685 7.6814 13.3844C8.28168 10.076 10.6239 7.82502 13.9729 7.70966C18.0052 7.57111 22.0497 7.56379 26.0814 7.70905C29.7264 7.84028 32.3661 10.5393 32.48 14.1855C32.6011 18.0573 32.6011 21.9385 32.48 25.8102C32.3661 29.4565 29.7273 32.1552 26.0817 32.2867C22.05 32.4323 18.0046 32.4359 13.9732 32.2846C10.3276 32.1475 7.80743 29.4425 7.5636 25.7907C7.54254 25.4749 7.47479 25.1617 7.42871 24.8474C7.42871 21.6144 7.42871 18.3814 7.42871 15.1486ZM20.0032 30.1257C21.8483 30.1257 23.6952 30.181 25.5378 30.1129C28.4269 30.0058 30.204 28.2816 30.2714 25.3952C30.355 21.7987 30.355 18.1973 30.2714 14.6005C30.204 11.7148 28.4257 9.95026 25.5378 9.88892C21.8724 9.81141 18.2029 9.81202 14.5375 9.88892C11.6716 9.94904 9.88934 11.6779 9.81152 14.5319C9.71265 18.1738 9.71265 21.8222 9.81152 25.4642C9.88934 28.3179 11.6716 30.0067 14.5378 30.1129C16.3572 30.1807 18.1813 30.1257 20.0032 30.1257Z" fill="url(#paint7_linear)"/>
<path d="M7.42871 15.1486C7.51202 14.5602 7.5755 13.9685 7.6814 13.3844C8.28168 10.076 10.6239 7.82502 13.9729 7.70966C18.0052 7.57111 22.0497 7.56379 26.0814 7.70905C29.7264 7.84028 32.3661 10.5393 32.48 14.1855C32.6011 18.0573 32.6011 21.9385 32.48 25.8102C32.3661 29.4565 29.7273 32.1552 26.0817 32.2867C22.05 32.4323 18.0046 32.4359 13.9732 32.2846C10.3276 32.1475 7.80743 29.4425 7.5636 25.7907C7.54254 25.4749 7.47479 25.1617 7.42871 24.8474C7.42871 21.6144 7.42871 18.3814 7.42871 15.1486ZM20.0032 30.1257C21.8483 30.1257 23.6952 30.181 25.5378 30.1129C28.4269 30.0058 30.204 28.2816 30.2714 25.3952C30.355 21.7987 30.355 18.1973 30.2714 14.6005C30.204 11.7148 28.4257 9.95026 25.5378 9.88892C21.8724 9.81141 18.2029 9.81202 14.5375 9.88892C11.6716 9.94904 9.88934 11.6779 9.81152 14.5319C9.71265 18.1738 9.71265 21.8222 9.81152 25.4642C9.88934 28.3179 11.6716 30.0067 14.5378 30.1129C16.3572 30.1807 18.1813 30.1257 20.0032 30.1257Z" fill="white"/>
<path d="M19.9996 13.5935C16.4614 13.5935 13.5928 16.4619 13.5928 20.0001C13.5928 23.5386 16.4614 26.4069 19.9996 26.4069C23.5381 26.4069 26.4065 23.5386 26.4065 20.0001C26.4065 16.4619 23.5381 13.5935 19.9996 13.5935ZM19.9996 24.2011C17.6794 24.2011 15.7986 22.3203 15.7986 20.0001C15.7986 17.6798 17.6794 15.799 19.9996 15.799C22.3199 15.799 24.2007 17.6798 24.2007 20.0001C24.2007 22.3203 22.3199 24.2011 19.9996 24.2011Z" fill="white"/>
<path d="M28.3047 13.3011C28.3047 14.1428 27.6224 14.8251 26.7807 14.8251C25.939 14.8251 25.2563 14.1428 25.2563 13.3011C25.2563 12.4591 25.939 11.7767 26.7807 11.7767C27.6224 11.7767 28.3047 12.4591 28.3047 13.3011Z" fill="white"/>
<defs>
<radialGradient id="paint0_radial" cx="0" cy="0" r="1" gradientUnits="userSpaceOnUse" gradientTransform="translate(8.19977 34.9568) scale(44.113)">
<stop stop-color="#FAE100"/>
<stop offset="0.0544" stop-color="#FADC04"/>
<stop offset="0.1167" stop-color="#FBCE0E"/>
<stop offset="0.1829" stop-color="#FCB720"/>
<stop offset="0.2514" stop-color="#FE9838"/>
<stop offset="0.3054" stop-color="#FF7950"/>
<stop offset="0.4922" stop-color="#FF1C74"/>
<stop offset="1" stop-color="#6C1CD1"/>
</radialGradient>
<linearGradient id="paint1_linear" x1="15.3414" y1="17.3797" x2="-52.4233" y2="-20.738" gradientUnits="userSpaceOnUse">
<stop stop-color="#A1B5D8" stop-opacity="0"/>
<stop offset="0.3094" stop-color="#90A2BD" stop-opacity="0.309804"/>
<stop offset="0.7554" stop-color="#7C8B9C" stop-opacity="0.756863"/>
<stop offset="1" stop-color="#748290"/>
</linearGradient>
<linearGradient id="paint2_linear" x1="20.0003" y1="35.3099" x2="20.0003" y2="41.5448" gradientUnits="userSpaceOnUse">
<stop stop-color="#FAE100" stop-opacity="0"/>
<stop offset="0.3068" stop-color="#FCA800" stop-opacity="0.305882"/>
<stop offset="0.6275" stop-color="#FE7300" stop-opacity="0.627451"/>
<stop offset="0.8685" stop-color="#FF5200" stop-opacity="0.866667"/>
<stop offset="1" stop-color="#FF4500"/>
</linearGradient>
<linearGradient id="paint3_linear" x1="17.7242" y1="17.6678" x2="7.82487" y2="7.76845" gradientUnits="userSpaceOnUse">
<stop stop-color="#833AB4" stop-opacity="0"/>
<stop offset="1" stop-color="#833AB4"/>
</linearGradient>
<linearGradient id="paint4_linear" x1="27.4142" y1="36.585" x2="22.4733" y2="13.292" gradientUnits="userSpaceOnUse">
<stop stop-color="#833AB4" stop-opacity="0"/>
<stop offset="1" stop-color="#833AB4"/>
</linearGradient>
<linearGradient id="paint5_linear" x1="29.2943" y1="29.2941" x2="9.44864" y2="9.44851" gradientUnits="userSpaceOnUse">
<stop stop-color="#833AB4" stop-opacity="0"/>
<stop offset="1" stop-color="#833AB4"/>
</linearGradient>
<linearGradient id="paint6_linear" x1="30.7663" y1="17.2862" x2="24.2038" y2="10.7236" gradientUnits="userSpaceOnUse">
<stop stop-color="#833AB4" stop-opacity="0"/>
<stop offset="1" stop-color="#833AB4"/>
</linearGradient>
<linearGradient id="paint7_linear" x1="27.9419" y1="12.1133" x2="11.761" y2="28.2942" gradientUnits="userSpaceOnUse">
<stop stop-color="#833AB4"/>
<stop offset="0.0922" stop-color="#9C3495"/>
<stop offset="0.2927" stop-color="#DC2546"/>
<stop offset="0.392" stop-color="#FD1D1D"/>
<stop offset="0.5589" stop-color="#FC6831"/>
<stop offset="0.6887" stop-color="#FC9B40"/>
<stop offset="0.7521" stop-color="#FCAF45"/>
<stop offset="0.7806" stop-color="#FDB750"/>
<stop offset="0.8656" stop-color="#FECB6A"/>
<stop offset="0.9415" stop-color="#FFD87A"/>
<stop offset="1" stop-color="#FFDC80"/>
</linearGradient>
</defs>
</svg>
