<svg width="123" height="60" viewBox="0 0 123 60" fill="none" xmlns="http://www.w3.org/2000/svg">
<g clip-path="url(#clip0)">
<path d="M60.228 23.2302V3.79712H65.1229L69.2019 13.3005L73.3215 3.79712H78.2164V23.2302H73.2911L73.3165 17.646L73.6104 13.7167L73.4482 13.6914L70.9146 20.3671H67.545L64.9354 13.6914L64.8037 13.7167L65.1229 17.646V23.2302H60.228Z" fill="#101417"/>
<path d="M80.8158 16.839V10.1887C80.8068 9.36515 80.9583 8.54778 81.2617 7.78238C81.5364 7.08044 81.9501 6.44149 82.4778 5.90405C83.0077 5.3695 83.616 4.91926 84.2817 4.56891C84.9699 4.20715 85.7024 3.93748 86.4606 3.76681C88.031 3.41822 89.6584 3.41822 91.2288 3.76681C91.9889 3.9366 92.7232 4.20631 93.4127 4.56891C94.0772 4.915 94.6854 5.36003 95.2166 5.88882C95.7453 6.42659 96.1606 7.06536 96.4378 7.76715C96.7415 8.53071 96.893 9.34647 96.8837 10.1684V16.839C96.893 17.6609 96.7415 18.4766 96.4378 19.2402C96.1607 19.9409 95.7473 20.5794 95.2217 21.1185C94.6949 21.6481 94.0899 22.0932 93.4279 22.4384C92.7415 22.8001 92.0107 23.0697 91.2541 23.2405C90.4741 23.4154 89.677 23.5023 88.8776 23.4994C88.075 23.5021 87.2745 23.4152 86.491 23.2405C85.7293 23.0709 84.9932 22.8012 84.302 22.4384C83.6375 22.0924 83.0293 21.6474 82.4981 21.1185C81.9675 20.5813 81.5505 19.9425 81.2718 19.2402C80.9643 18.4774 80.8094 17.6616 80.8158 16.839ZM85.7107 16.8034C85.7065 17.1249 85.7921 17.4411 85.9577 17.7165C86.1234 17.9919 86.3625 18.2154 86.6481 18.362C87.3242 18.7444 88.0913 18.9356 88.8675 18.9153C89.6369 18.9352 90.3966 18.7401 91.0616 18.3518C91.3428 18.2027 91.5777 17.9788 91.7404 17.7048C91.903 17.4308 91.9873 17.1172 91.9838 16.7984V10.1531C91.9924 9.69683 91.8213 9.25548 91.5075 8.92461C91.1825 8.58055 90.7739 8.32691 90.3218 8.1885C89.8298 8.03465 89.317 7.9576 88.8016 7.96006C88.0392 7.94903 87.2904 8.16262 86.6481 8.57432C86.3663 8.73075 86.131 8.95935 85.9663 9.23675C85.8016 9.51414 85.7134 9.83038 85.7107 10.1531V16.8034Z" fill="#101417"/>
<path d="M99.4934 23.2305V3.79739H107.251C108.384 3.77667 109.507 4.0145 110.535 4.49288C111.475 4.93772 112.258 5.65828 112.779 6.55904C113.298 7.44887 113.566 8.46297 113.555 9.4933C113.559 9.5694 113.559 9.64566 113.555 9.72175C113.506 10.3376 113.315 10.9337 112.997 11.463C112.672 12.0767 112.163 12.5735 111.543 12.8845C112.032 13.1255 112.484 13.4349 112.886 13.8033C113.235 14.1159 113.53 14.4848 113.757 14.8948C113.948 15.2644 114.1 15.6522 114.213 16.0522C114.315 16.3813 114.37 16.7231 114.376 17.0675V17.1742C114.359 17.5126 114.337 17.851 114.31 18.1895C113.773 21.5502 111.477 23.2305 107.423 23.2305H99.4934ZM104.383 11.397H107.241C107.596 11.4089 107.947 11.321 108.255 11.1432C108.517 10.9935 108.728 10.7691 108.863 10.4985C108.996 10.2316 109.068 9.93869 109.075 9.64052C109.077 9.36209 109.013 9.08725 108.888 8.83843C108.751 8.5664 108.536 8.34181 108.27 8.1937C107.961 8.01932 107.611 7.93163 107.256 7.93987H104.383V11.397ZM104.383 18.8748H107.241C107.745 18.8929 108.242 18.7547 108.665 18.4788C109.014 18.2529 109.264 17.9027 109.364 17.4991C109.409 17.3128 109.431 17.122 109.43 16.9305C109.44 16.7286 109.417 16.5264 109.364 16.3314C109.262 15.9257 109.008 15.5749 108.655 15.3517C108.237 15.0774 107.745 14.9391 107.246 14.9557H104.383V18.8748Z" fill="#101417"/>
<path d="M116.818 23.2302V3.79712H121.485V23.2302H116.818Z" fill="#101417"/>
<path d="M58.8042 36.5513H63.9575L66.2833 45.9531L66.79 50.1108H66.9268L67.3981 45.9785L69.582 39.0896H73.3419L75.3687 45.9988L76.0072 50.1159H76.0883L76.6406 46.0089L79.0221 36.5513H84.1754L78.4951 56.1976H73.8992L72.1511 50.7657L71.4467 46.2678H71.3657L70.6107 50.7403L69.0905 56.2027H64.4946L58.8042 36.5513Z" fill="#101417"/>
<path d="M85.6904 56.1976V36.5513H90.641V56.1976H85.6904Z" fill="#101417"/>
<path d="M92.8149 52.9081L95.9414 49.9637C96.3339 50.4351 96.8118 50.8278 97.35 51.1212C97.8711 51.4181 98.4379 51.6257 99.0273 51.7355C99.3853 51.7983 99.7481 51.8305 100.112 51.8319C100.28 51.8454 100.45 51.8454 100.618 51.8319C101.065 51.8001 101.492 51.6396 101.85 51.3699C102.011 51.2463 102.141 51.0862 102.229 50.9027C102.317 50.7192 102.361 50.5175 102.356 50.314C102.346 50.1361 102.295 49.9631 102.207 49.8081C102.119 49.6532 101.997 49.5206 101.85 49.4205C101.497 49.1148 101.087 48.8819 100.644 48.7352C100.117 48.5743 99.5782 48.4571 99.0323 48.3849C98.2443 48.2666 97.4757 48.043 96.747 47.7199C96.0448 47.4062 95.3926 46.9905 94.8114 46.4863C94.2247 45.9722 93.7592 45.3342 93.4483 44.6181C93.1064 43.8393 92.9337 42.9966 92.9416 42.1458C92.9294 41.2627 93.1366 40.3904 93.5446 39.6075C93.9265 38.87 94.479 38.2346 95.156 37.7546C95.8507 37.2692 96.6189 36.8989 97.4311 36.658C98.289 36.3993 99.1803 36.2693 100.076 36.2722C101.315 36.2594 102.543 36.4959 103.689 36.9677C104.896 37.5113 105.952 38.3426 106.765 39.3892L103.532 41.8768C103.054 41.3486 102.464 40.9356 101.804 40.6685C101.255 40.423 100.662 40.2901 100.061 40.2776H99.9647C99.4416 40.2885 98.9357 40.4664 98.5205 40.7853C98.3216 40.9355 98.1606 41.1305 98.0506 41.3544C97.9406 41.5784 97.8846 41.8251 97.8872 42.0747C97.9311 42.9242 98.7942 43.5334 100.476 43.9023C101.024 44.0005 101.519 44.1071 101.961 44.2221C102.438 44.3474 102.909 44.4982 103.37 44.6739C103.822 44.8398 104.258 45.0471 104.672 45.2933C105.063 45.5334 105.425 45.8179 105.751 46.1411C106.092 46.4709 106.378 46.853 106.598 47.2732C106.831 47.741 107.001 48.2377 107.104 48.7504C107.206 49.236 107.252 49.7317 107.241 50.2277V50.5932C107.224 51.3138 107.051 52.0221 106.734 52.6695C106.429 53.2937 106.008 53.8537 105.493 54.3194C104.965 54.7882 104.377 55.1843 103.745 55.4972C103.09 55.827 102.397 56.0759 101.682 56.2384C100.971 56.4005 100.243 56.4822 99.5137 56.4821C98.2612 56.4718 97.0299 56.1564 95.9262 55.5632C94.7075 54.9172 93.6453 54.0108 92.8149 52.9081Z" fill="#101417"/>
<path d="M109.354 56.1976V36.5513H123V41.1862H114.36V44.2626H122.311V48.5726H114.36V51.4865H123V56.2027L109.354 56.1976Z" fill="#101417"/>
<path d="M25.7111 51.4353V57.6135C25.7111 57.6135 25.4577 60.5731 23.4309 59.898C21.404 59.2228 1.04927 50.5063 1.04927 50.5063C0.73547 50.232 0.482995 49.8944 0.30836 49.5156C0.133725 49.1368 0.040862 48.7254 0.0358437 48.3082C-0.0502978 46.7852 0.0358437 23.5193 0.0358437 23.5193C0.0358437 23.5193 0.208127 22.3364 0.714842 22.1638C1.22156 21.9912 6.37485 19.6255 6.37485 19.6255C6.49226 19.5532 6.59134 19.4546 6.66432 19.3374C6.73729 19.2203 6.78216 19.0878 6.79542 18.9503V16.3258C6.79542 16.3258 7.04878 15.3104 7.55549 15.0566C8.06221 14.8028 12.4554 12.8585 12.4554 12.8585C12.6472 12.7718 12.8073 12.6275 12.9136 12.4456C13.0198 12.2636 13.0669 12.0531 13.0483 11.8431C13.0483 11.0664 13.0787 9.73128 13.0787 9.73128C13.2084 9.32755 13.478 8.98362 13.8388 8.76166C14.3911 8.49768 32.9977 0.436083 32.9977 0.436083C32.9977 0.436083 33.6412 0.161948 33.9503 0.0807227C34.2799 -0.0243034 34.634 -0.0243034 34.9637 0.0807227C35.1816 0.20256 36.5903 1.62908 36.6511 1.69C36.7567 1.84036 36.8229 2.01494 36.8436 2.19765V16.8334C36.8026 16.9724 36.7102 17.0904 36.5852 17.1634C36.419 17.2064 36.2447 17.2064 36.0785 17.1634L34.6495 16.2445C34.5413 16.1369 34.4794 15.9911 34.4773 15.8384C34.4773 15.5896 34.4215 4.83239 34.4215 4.83239C34.4102 4.62916 34.3744 4.42804 34.3151 4.23336C34.116 4.04564 33.8686 3.9173 33.6006 3.86277C33.3256 3.86491 33.0524 3.90768 32.7899 3.98968C32.6328 4.06075 17.3706 10.3608 17.3706 10.3608C17.3706 10.3608 17.1172 10.4217 17.1121 10.4572C17.1071 10.4928 17.1121 10.8735 17.1121 10.8735C17.1098 10.8802 17.1089 10.8872 17.1095 10.8943C17.11 10.9013 17.112 10.9081 17.1154 10.9143C17.1187 10.9206 17.1233 10.926 17.1288 10.9303C17.1344 10.9347 17.1408 10.9378 17.1476 10.9395L36.4028 19.062C36.7182 19.2066 37.0216 19.3763 37.3098 19.5697C37.6631 19.9295 37.9836 20.3203 38.2675 20.7373C38.3804 20.9041 38.4628 21.0898 38.5107 21.2856C38.5107 21.4582 38.6627 47.3334 38.6627 47.3334C38.6283 47.4932 38.5572 47.6427 38.455 47.77C38.3074 47.9258 38.1225 48.0411 37.9179 48.1051C37.7092 48.0924 37.5023 48.0601 37.2997 48.0086C37.2034 47.968 34.9789 47.1862 34.9029 47.1101C34.6525 46.8972 34.4265 46.6571 34.229 46.3943C34.1654 46.255 34.1195 46.1084 34.0922 45.9577C34.0922 45.8206 33.9503 24.4381 33.9503 24.4381C33.9078 24.2539 33.8266 24.0808 33.7121 23.9305C33.5702 23.8035 15.2272 15.7724 15.2272 15.7724C15.2272 15.7724 15.2778 15.7724 14.8421 15.6455C14.0891 15.4816 13.3097 15.4816 12.5568 15.6455C11.9994 15.8486 12.349 15.6912 12.2831 15.7216L9.87118 16.808L9.7141 16.9349C9.7141 16.9349 9.59755 17.0365 9.61276 17.0771C9.61944 17.1055 9.61944 17.135 9.61276 17.1634V17.2192C9.61276 17.2192 9.61276 17.2192 9.6989 17.2497C9.78504 17.2801 30.7478 26.0778 30.5756 26.0068C31.3256 26.4576 31.9225 27.1246 32.2882 27.9206C32.2882 28.0069 32.4048 53.5979 32.4048 53.5979C32.3825 53.7183 32.3468 53.8358 32.2984 53.9482C32.228 54.0578 32.1388 54.1541 32.0349 54.2325C31.8252 54.3065 31.6033 54.3392 31.3812 54.329C31.1853 54.3194 30.9904 54.2939 30.7985 54.2528C30.682 54.2122 29.3088 53.7452 29.1922 53.669C28.7864 53.4737 28.3922 53.2551 28.0116 53.0141C27.8163 52.8139 27.6462 52.5906 27.5049 52.3491C27.5049 52.2425 27.292 31.3321 27.292 31.3321C27.2505 31.1618 27.1668 31.0047 27.0488 30.8752C26.8917 30.7483 8.30036 22.6258 8.30036 22.6258C8.30036 22.6258 8.30036 22.5902 7.79365 22.4126C7.06457 22.2526 6.31253 22.2268 5.57424 22.3364L5.26007 22.4329C5.2246 22.4329 3.48151 23.2096 3.48151 23.2096C3.48151 23.2096 3.37003 23.2908 3.37003 23.3517C3.35719 23.4444 3.35719 23.5383 3.37003 23.6309C3.41622 23.7104 3.47433 23.7823 3.54231 23.8442L5.06246 24.5599L24.3227 32.9261C24.3227 32.9261 24.8953 33.3576 24.9966 33.4744C25.1502 33.6674 25.2875 33.8728 25.4071 34.0887C25.4906 34.3112 25.5551 34.5405 25.5996 34.774C25.5743 34.84 25.7111 51.4353 25.7111 51.4353Z" fill="#0057FF"/>
</g>
<defs>
<clipPath id="clip0">
<rect width="123" height="60" fill="white"/>
</clipPath>
</defs>
</svg>
