<svg width="120" height="120" viewBox="0 0 120 120" fill="none" xmlns="http://www.w3.org/2000/svg">
<path d="M60 94.5703C63.236 94.5703 65.8594 91.947 65.8594 88.7109C65.8594 85.4749 63.236 82.8516 60 82.8516C56.764 82.8516 54.1406 85.4749 54.1406 88.7109C54.1406 91.947 56.764 94.5703 60 94.5703Z" fill="#0057FF"/>
<path d="M60 0C26.8397 0 0 26.8352 0 60C0 93.1603 26.8352 120 60 120C93.1603 120 120 93.1648 120 60C120 26.8397 93.1648 0 60 0ZM60 110.625C32.021 110.625 9.375 87.9827 9.375 60C9.375 32.021 32.0173 9.375 60 9.375C87.979 9.375 110.625 32.0173 110.625 60C110.625 87.979 87.9827 110.625 60 110.625Z" fill="#0057FF"/>
<path d="M60 30.1172C49.6613 30.1172 41.25 38.5284 41.25 48.8672C41.25 51.4561 43.3486 53.5547 45.9375 53.5547C48.5264 53.5547 50.625 51.4561 50.625 48.8672C50.625 43.6978 54.8306 39.4922 60 39.4922C65.1694 39.4922 69.375 43.6978 69.375 48.8672C69.375 54.0366 65.1694 58.2422 60 58.2422C57.4111 58.2422 55.3125 60.3408 55.3125 62.9297V74.6484C55.3125 77.2373 57.4111 79.3359 60 79.3359C62.5889 79.3359 64.6875 77.2373 64.6875 74.6484V67.024C72.7655 64.9373 78.75 57.588 78.75 48.8672C78.75 38.5284 70.3387 30.1172 60 30.1172Z" fill="#0057FF"/>
</svg>
