<svg width="64" height="64" viewBox="0 0 64 64" fill="none" xmlns="http://www.w3.org/2000/svg">
<path d="M32 64C49.6731 64 64 49.6731 64 32C64 14.3269 49.6731 0 32 0C14.3269 0 0 14.3269 0 32C0 49.6731 14.3269 64 32 64Z" fill="#65A2D9"/>
<path d="M43.2852 20.6804C36.6206 19.9874 29.8625 16.5207 23.8116 21.0102C18.4244 24.8889 22.0876 32 22.3031 37.6028C22.4544 39.8723 21.9391 41.7813 21.114 43.7117L40.2994 62.9108C51.2999 59.9647 59.9614 51.3042 62.9095 40.3045L43.2852 20.6804Z" fill="#3A7CA5"/>
<path d="M48.8391 34.7937C48.2577 33.9902 47.9887 33.0092 47.9896 32.018C47.9896 32.0121 47.9896 32.0064 47.9896 32.0005C47.9896 23.1696 40.8308 16.0109 32.0003 16.0109C30.0681 16.0109 28.2169 16.3547 26.5029 16.983C25.5759 17.323 24.5599 17.3881 23.6093 17.1205C22.7698 16.8841 21.8724 16.7841 20.9431 16.8484C17.0394 17.1171 13.8968 20.3162 13.6943 24.2241C13.5979 26.0894 14.1569 27.8195 15.1613 29.2071C15.7421 30.0106 16.0117 30.9916 16.0108 31.9835V32.001C16.0108 40.8315 23.1691 47.9902 32.0001 47.9902C33.9323 47.9902 35.7834 47.6467 37.4974 47.0181C38.4244 46.6781 39.4404 46.613 40.3911 46.8806C41.2306 47.1175 42.1279 47.217 43.0573 47.1532C46.9609 46.8847 50.1036 43.6854 50.3061 39.7777C50.4024 37.9119 49.8434 36.1816 48.8391 34.7937ZM32.5857 29.1335C35.8096 29.9004 40.6813 31.0591 40.6813 36.4256C40.6813 39.069 39.3793 41.086 37.0154 42.1041C35.3286 42.8305 33.4192 42.9286 31.7737 42.9286C26.7174 42.9286 23.5246 38.9972 23.3906 38.8299C22.5624 37.7915 22.7329 36.2781 23.7716 35.45C24.8102 34.6219 26.3236 34.7924 27.1514 35.831C27.1586 35.8396 29.0684 38.0332 31.7734 38.1189C35.0306 38.2219 35.7748 37.2529 35.8712 36.4257C35.9888 35.4154 35.0901 34.6739 31.4722 33.8131C28.4053 33.0841 23.7708 31.9817 23.7708 27.0395C23.7708 25.5002 24.3968 20.4785 32.4518 20.4785C37.5382 20.4785 40.5408 24.4829 40.6662 24.6534C41.4527 25.7237 41.2231 27.2289 40.1527 28.0156C39.0873 28.7989 37.5914 28.575 36.8017 27.5176C36.7451 27.445 35.0264 25.5327 32.4518 25.2884C30.5041 25.1032 28.5808 25.806 28.5808 26.8435C28.5813 27.9427 29.1336 28.3125 32.5857 29.1335Z" fill="white"/>
<path d="M35.8716 36.4256C35.9791 35.5035 35.2388 34.8054 32.3594 34.0363V38.1258C35.1219 38.1004 35.7813 37.2008 35.8716 36.4256Z" fill="white"/>
<path d="M48.8386 34.7936C48.2573 33.9901 47.9881 33.0091 47.9891 32.0178C47.9891 32.0119 47.9891 32.0061 47.9891 32.0003C47.9891 23.2898 41.0229 16.2113 32.3589 16.0197V20.48C32.3905 20.4798 32.4199 20.4783 32.4518 20.4783C37.5381 20.4783 40.5408 24.4827 40.6661 24.6532C41.4526 25.7235 41.223 27.2286 40.1526 28.0154C39.0873 28.7986 37.5914 28.5748 36.8016 27.5174C36.745 27.4448 35.0264 25.5325 32.4518 25.2881C32.4208 25.2851 32.3899 25.2845 32.3589 25.2819V29.079C32.4334 29.0969 32.5078 29.115 32.5851 29.1333C35.809 29.9001 40.6808 31.0586 40.6808 36.4254C40.6808 39.0688 39.3788 41.0858 37.0149 42.1039C35.5248 42.7456 33.861 42.8969 32.3589 42.9234V47.9814C34.161 47.9415 35.8896 47.6066 37.4968 47.0173C38.4238 46.6773 39.4398 46.6121 40.3904 46.8798C41.2299 47.1166 42.1273 47.2161 43.0566 47.1524C46.9603 46.8839 50.1029 43.6845 50.3054 39.7769C50.402 37.9118 49.843 36.1815 48.8386 34.7936Z" fill="#D1D1D1"/>
<path d="M28.5811 26.8434C28.5811 27.918 29.1106 28.2958 32.3592 29.0791V25.282C30.4437 25.1274 28.5811 25.8221 28.5811 26.8434Z" fill="white"/>
<path d="M52.5527 62.9043C38.8647 64.3652 25.1353 64.3652 11.4473 62.9043C5.98926 62.3218 1.67822 58.0107 1.0957 52.5522C-0.365234 38.8643 -0.365234 25.1353 1.0957 11.4473C1.67822 5.98926 5.98926 1.67822 11.4473 1.0957C25.1353 -0.365234 38.8643 -0.365234 52.5522 1.0957C58.0107 1.67822 62.3218 5.98926 62.9043 11.4473C64.3652 25.1353 64.3652 38.8643 62.9043 52.5522C62.3218 58.0107 58.0112 62.3218 52.5527 62.9043Z" fill="url(#paint0_linear)"/>
<path d="M59.4236 13.7622C58.907 8.91895 55.0818 5.09326 50.238 4.57617C38.0916 3.28027 25.9089 3.28027 13.7625 4.57617C8.91919 5.09326 5.09351 8.91895 4.57642 13.7622C3.28052 25.9087 3.28052 38.0913 4.57642 50.2373C5.09351 55.0811 8.91919 58.9067 13.7625 59.4233C25.9089 60.7197 38.0916 60.7197 50.2375 59.4233C55.0813 58.9067 58.907 55.0811 59.4236 50.2373C60.72 38.0913 60.72 25.9087 59.4236 13.7622Z" fill="url(#paint1_linear)"/>
<path d="M0.958984 51.2256C1.00293 51.668 1.04834 52.1104 1.0957 52.5527C1.67822 58.0107 5.98926 62.3218 11.4478 62.9043C25.1357 64.3652 38.8647 64.3652 52.5527 62.9043C58.0112 62.3218 62.3218 58.0107 62.9043 52.5527C62.9517 52.1104 62.9971 51.668 63.0415 51.2256H0.958984Z" fill="url(#paint2_linear)"/>
<path d="M45.2378 19.3984C41.9087 15.9023 37.209 13.7231 32 13.7231C31.1616 13.7231 30.3369 13.7808 29.5283 13.8901C27.7842 12.7974 25.7222 12.1646 23.5122 12.1646C17.2451 12.1646 12.1646 17.2451 12.1646 23.5122C12.1646 25.7222 12.7974 27.7842 13.8901 29.5283C13.7808 30.3369 13.7231 31.1616 13.7231 32C13.7231 37.209 15.9023 41.9087 19.3984 45.2378L38.0645 63.9038C42.8965 63.752 47.7271 63.4194 52.5527 62.9043C58.0112 62.3218 62.3218 58.0107 62.9043 52.5522C63.4194 47.7271 63.752 42.8965 63.9038 38.0645L45.2378 19.3984Z" fill="url(#paint3_linear)"/>
<path d="M50.1099 34.4717C50.2192 33.6631 50.2769 32.8384 50.2769 32C50.2769 21.9058 42.0942 13.7231 32 13.7231C31.1616 13.7231 30.3369 13.7808 29.5288 13.8901C27.7847 12.7969 25.7222 12.1646 23.5122 12.1646C17.2451 12.1646 12.1646 17.2446 12.1646 23.5122C12.1646 25.7222 12.7974 27.7842 13.8901 29.5283C13.7808 30.3369 13.7231 31.1616 13.7231 32C13.7231 42.0942 21.9062 50.2769 32.0005 50.2769C32.8389 50.2769 33.6636 50.2192 34.4717 50.1099C36.2158 51.2031 38.2783 51.8354 40.4883 51.8354C46.7554 51.8354 51.8354 46.7554 51.8354 40.4878C51.8354 38.2778 51.2031 36.2158 50.1099 34.4717ZM40.312 40.7612C38.9424 42.3945 37.0991 43.1504 35.0864 43.5679C33.9189 43.8101 32.7285 43.9458 31.5356 43.875C29.2339 43.7388 26.979 43.4136 25.0508 41.9766C23.687 40.9604 22.71 39.6738 22.2554 38.0205C21.8193 36.436 22.6792 35.2036 24.02 34.9854C24.8403 34.8521 25.7241 35.1636 26.249 35.875C26.6377 36.4019 26.8633 37.0073 27.1396 37.5864C28.0186 39.4277 29.4971 40.2529 31.4976 40.2905C32.8281 40.3154 34.1113 40.1895 35.27 39.4614C36.5894 38.6323 37.0659 37.4414 36.6226 36.1309C36.3745 35.3979 35.8257 34.9629 35.1807 34.6289C33.8599 33.9448 32.3965 33.7329 30.9731 33.3877C28.9395 32.895 26.9136 32.4102 25.1108 31.248C22.1768 29.3569 21.8989 25.2974 23.9409 22.9453C25.1875 21.5098 26.8188 20.832 28.6016 20.4355C29.6992 20.1914 30.8184 20.0669 31.8062 20.1177C33.7715 20.0889 35.5464 20.3428 37.1953 21.1514C38.834 21.9546 40.1538 23.0767 40.6709 24.9326C41.1768 26.749 39.6768 28.3623 37.8643 27.9194C37.2886 27.7783 36.9116 27.353 36.5806 26.8813C36.1904 26.3242 35.9009 25.7061 35.4863 25.1616C34.7622 24.208 33.832 23.666 32.6299 23.6167C31.353 23.564 30.0742 23.4814 28.8833 24.1162C28.4194 24.3633 28.0117 24.6709 27.7158 25.0942C27.0703 26.0176 27.3511 27.1299 28.377 27.8247C29.4258 28.5352 30.6401 28.7842 31.8418 29.0703C33.9766 29.5786 36.1411 29.9951 38.144 30.938C39.9282 31.7778 41.2983 33.0034 41.7017 35.041C42.1201 37.1567 41.7212 39.0811 40.312 40.7612Z" fill="white"/>
<defs>
<linearGradient id="paint0_linear" x1="21.2492" y1="8.99828" x2="37.4367" y2="43.6319" gradientUnits="userSpaceOnUse">
<stop stop-color="#00C3FF"/>
<stop offset="1" stop-color="#00B0ED"/>
</linearGradient>
<linearGradient id="paint1_linear" x1="45.5356" y1="39.2609" x2="-47.4481" y2="-10.619" gradientUnits="userSpaceOnUse">
<stop stop-color="#00B0ED" stop-opacity="0"/>
<stop offset="1" stop-color="#00A2CE"/>
</linearGradient>
<linearGradient id="paint2_linear" x1="32" y1="54.6729" x2="32" y2="63.059" gradientUnits="userSpaceOnUse">
<stop stop-color="#00B0ED" stop-opacity="0"/>
<stop offset="1" stop-color="#00A2CE"/>
</linearGradient>
<linearGradient id="paint3_linear" x1="67.8902" y1="67.8902" x2="36.6676" y2="36.6676" gradientUnits="userSpaceOnUse">
<stop stop-color="#00B0ED" stop-opacity="0"/>
<stop offset="1" stop-color="#00A2CE"/>
</linearGradient>
</defs>
</svg>
