<svg width="64" height="64" viewBox="0 0 64 64" fill="none" xmlns="http://www.w3.org/2000/svg">
<g clip-path="url(#clip0)">
<path d="M32 64C49.6731 64 64 49.6731 64 32C64 14.3269 49.6731 0 32 0C14.3269 0 0 14.3269 0 32C0 49.6731 14.3269 64 32 64Z" fill="#75B73B"/>
<path d="M45.0303 18.9784C43.1749 18.5144 40.4464 16.9119 38.6803 16.2695C31.7846 14.1146 22.5186 15.8385 19.9328 23.8116C19.7173 24.0271 19.2863 24.0271 19.0708 24.0271C13.899 30.0607 17.3469 37.3873 16.9159 44.0675C16.7688 46.4223 15.5305 48.5046 13.937 50.266L27.3473 63.6622C28.8665 63.8835 30.4195 64.0001 32.0001 64.0001C47.8047 64.0001 60.9317 52.542 63.531 37.48L45.0303 18.9784Z" fill="#52891D"/>
<path d="M31.1048 13.5557C21.3512 14.0197 13.6543 22.1427 13.6837 31.907C13.6927 34.881 14.4107 37.6882 15.6774 40.1689L13.7328 49.6082C13.6277 50.1189 14.0882 50.566 14.5954 50.4458L23.8448 48.2545C26.2212 49.4384 28.8903 50.1219 31.7151 50.165C41.6842 50.3174 49.9964 42.4019 50.3076 32.4364C50.6403 21.7542 41.8241 13.045 31.1048 13.5557ZM42.1414 41.9918C39.4328 44.7004 35.8311 46.1923 32.0002 46.1923C29.7572 46.1923 27.6094 45.6889 25.6169 44.6965L24.3292 44.0548L18.6579 45.3982L19.8516 39.6037L19.2172 38.3608C18.1827 36.335 17.6582 34.1448 17.6582 31.8503C17.6582 28.0193 19.1501 24.4179 21.8587 21.709C24.5432 19.0243 28.2036 17.5085 32.0004 17.5085C35.8309 17.5085 39.4327 19.0004 42.1413 21.709C44.8499 24.4177 46.3418 28.0194 46.3418 31.8499C46.3421 35.6469 44.8261 39.3072 42.1414 41.9918Z" fill="white"/>
<path d="M40.8893 35.8225L37.3413 34.8039C36.8752 34.6703 36.3727 34.8027 36.0328 35.1489L35.165 36.0327C34.7993 36.4057 34.2443 36.5253 33.76 36.3294C32.0816 35.6502 28.551 32.5109 27.6499 30.9412C27.3894 30.4882 27.4325 29.9222 27.752 29.5084L28.5093 28.5285C28.806 28.1448 28.8685 27.6289 28.6724 27.1852L27.1798 23.8092C26.8223 23.0007 25.789 22.7652 25.1139 23.3362C24.1238 24.1738 22.9489 25.4462 22.8063 26.8562C22.5544 29.342 23.6206 32.4754 27.6515 36.238C32.3086 40.5853 36.0383 41.1592 38.4669 40.571C39.8443 40.2377 40.945 38.9004 41.6393 37.8053C42.1132 37.0582 41.7387 36.0667 40.8893 35.8225Z" fill="white"/>
<path d="M44.5009 18.4635L41.723 21.3108C41.8644 21.4414 42.0052 21.5728 42.1419 21.7096C44.8507 24.4183 46.3424 28.02 46.3424 31.8505C46.3424 35.6474 44.8264 39.3075 42.1419 41.9923C39.4333 44.7009 35.8315 46.1928 32.0007 46.1928C29.7577 46.1928 27.61 45.6894 25.6174 44.697L24.3297 44.0553L18.6584 45.3986L18.7757 44.8295L13.7539 49.976C13.8647 50.3089 14.217 50.5354 14.5957 50.4458L23.845 48.2545C26.2214 49.4384 28.8905 50.1219 31.7153 50.165C41.6844 50.3174 49.9969 42.4019 50.3078 32.4364C50.4797 26.9196 48.2112 21.9294 44.5009 18.4635Z" fill="#D1D1D1"/>
<path d="M40.8894 35.8227L37.3414 34.8041C36.8753 34.6704 36.3728 34.8028 36.0329 35.149L35.1651 36.0328C34.7994 36.4058 34.2444 36.5254 33.7601 36.3295C32.7906 35.9372 31.2038 34.7239 29.862 33.4666L27.3955 35.9947C27.4801 36.0757 27.5645 36.1565 27.6518 36.2382C32.3089 40.5854 36.0385 41.1593 38.4671 40.5712C39.8445 40.2378 40.9453 38.9005 41.6395 37.8054C42.1133 37.0583 41.7388 36.0668 40.8894 35.8227Z" fill="#D1D1D1"/>
<path d="M64 0H0V64H64V0Z" fill="#1BD741"/>
<path d="M9.61865 54.4053L12.7536 43.2712C10.7376 39.8464 9.67623 35.9498 9.67623 31.9469C9.67623 19.6217 19.7035 9.59448 32.0286 9.59448C44.3538 9.59448 54.3809 19.6217 54.3809 31.9469C54.3809 44.2721 44.3538 54.2993 32.0286 54.2993C28.1882 54.2993 24.4277 53.3163 21.1009 51.4496L9.61865 54.4053ZM21.6879 47.3831L22.3721 47.8009C25.2727 49.5716 28.6119 50.5076 32.0286 50.5076C42.263 50.5076 50.5892 42.1813 50.5892 31.9469C50.5892 21.7125 42.263 13.3862 32.0286 13.3862C21.7943 13.3862 13.4679 21.7125 13.4679 31.9469C13.4679 35.5129 14.4815 38.9759 16.3987 41.9614L16.8594 42.6788L15.0541 49.0908L21.6879 47.3831Z" fill="white"/>
<path d="M25.7496 21.5435L24.2992 21.4644C23.8436 21.4396 23.3968 21.5918 23.0524 21.8909C22.3493 22.5015 21.225 23.682 20.8796 25.2203C20.3647 27.514 21.1605 30.3227 23.2202 33.1314C25.28 35.94 29.1185 40.4339 35.906 42.3532C38.0933 42.9717 39.8139 42.5548 41.1414 41.7056C42.1928 41.033 42.9176 39.9535 43.1788 38.7331L43.4104 37.6515C43.484 37.3077 43.3094 36.9589 42.9901 36.8117L38.0882 34.5523C37.77 34.4057 37.3927 34.4984 37.1787 34.7757L35.2543 37.2704C35.1089 37.4588 34.8601 37.5335 34.6354 37.4546C33.3176 36.9915 28.9032 35.1427 26.481 30.4769C26.3759 30.2745 26.402 30.0289 26.551 29.8563L28.3902 27.7287C28.5781 27.5115 28.6255 27.2061 28.5126 26.942L26.3997 21.9986C26.2872 21.7355 26.0351 21.5591 25.7496 21.5435Z" fill="white"/>
</g>
<defs>
<clipPath id="clip0">
<rect width="64" height="64" fill="white"/>
</clipPath>
</defs>
</svg>
