<svg width="1440" height="315" viewBox="0 0 1440 315" fill="none" xmlns="http://www.w3.org/2000/svg">
<g opacity="0.4">
<path fill-rule="evenodd" clip-rule="evenodd" d="M43 206C15.3858 206 -7 228.386 -7 256C-7 283.614 15.3858 306 43 306C70.6142 306 93 283.614 93 256C93 228.386 70.6142 206 43 206ZM32.0069 229.494C34.8509 229.365 35.76 229.333 42.9984 229.333C50.2391 229.333 51.1449 229.365 53.9888 229.494C56.8277 229.624 58.7667 230.074 60.4667 230.733C62.2223 231.414 63.7056 232.325 65.1889 233.808C66.6723 235.291 67.5834 236.778 68.2668 238.532C68.9223 240.228 69.3723 242.166 69.5057 245.005C69.6334 247.849 69.6668 248.758 69.6668 256C69.6668 263.243 69.6334 264.149 69.5057 266.994C69.3723 269.831 68.9223 271.77 68.2668 273.466C67.5834 275.219 66.6723 276.707 65.1889 278.189C63.7073 279.673 62.2217 280.586 60.4683 281.267C58.7717 281.927 56.8316 282.376 53.9927 282.506C51.1482 282.636 50.2421 282.667 42.9993 282.667C35.7575 282.667 34.8492 282.636 32.0047 282.506C29.1663 282.376 27.228 281.927 25.5313 281.267C23.7785 280.586 22.2907 279.673 20.809 278.189C19.3262 276.707 18.4151 275.219 17.7334 273.465C17.0746 271.77 16.6251 269.832 16.4945 266.993C16.3657 264.149 16.3334 263.243 16.3334 256C16.3334 248.758 16.3668 247.848 16.494 245.004C16.6218 242.166 17.0718 240.228 17.7329 238.532C18.4162 236.778 19.3274 235.291 20.8107 233.808C22.2929 232.326 23.7807 231.414 25.5346 230.733C27.2302 230.074 29.168 229.624 32.0069 229.494ZM42.9984 229.333C42.9998 229.333 43.0012 229.333 43.0026 229.333H42.9943C42.9957 229.333 42.997 229.333 42.9984 229.333Z" fill="white"/>
<path fill-rule="evenodd" clip-rule="evenodd" d="M40.6102 234.139C41.0747 234.138 41.5744 234.138 42.1137 234.139L43.0025 234.139C50.1225 234.139 50.9664 234.165 53.7781 234.292C56.3781 234.411 57.7893 234.846 58.7293 235.211C59.9737 235.694 60.861 236.272 61.7938 237.205C62.7271 238.138 63.3049 239.027 63.7893 240.272C64.1543 241.211 64.5893 242.622 64.7077 245.222C64.8355 248.033 64.8632 248.877 64.8632 255.994C64.8632 263.111 64.8355 263.955 64.7077 266.767C64.5888 269.367 64.1543 270.778 63.7893 271.717C63.306 272.961 62.7271 273.847 61.7938 274.78C60.8604 275.713 59.9743 276.291 58.7293 276.774C57.7904 277.141 56.3781 277.574 53.7781 277.693C50.967 277.821 50.1225 277.849 43.0025 277.849C35.8818 277.849 35.0379 277.821 32.2268 277.693C29.6268 277.573 28.2156 277.139 27.2751 276.774C26.0306 276.291 25.1417 275.713 24.2084 274.779C23.275 273.846 22.6972 272.959 22.2128 271.714C21.8478 270.775 21.4128 269.364 21.2944 266.764C21.1667 263.953 21.1411 263.109 21.1411 255.988C21.1411 248.866 21.1667 248.026 21.2944 245.215C21.4133 242.615 21.8478 241.204 22.2128 240.264C22.6961 239.02 23.275 238.131 24.2084 237.197C25.1417 236.264 26.0306 235.686 27.2751 235.202C28.2151 234.835 29.6268 234.402 32.2268 234.282C34.6868 234.171 35.6402 234.138 40.6102 234.132V234.139ZM57.2373 238.567C55.4706 238.567 54.0373 239.999 54.0373 241.766C54.0373 243.532 55.4706 244.966 57.2373 244.966C59.004 244.966 60.4374 243.532 60.4374 241.766C60.4374 239.999 59.004 238.566 57.2373 238.566V238.567ZM29.3083 256C29.3083 248.437 35.44 242.306 43.0029 242.306H43.0023C50.5652 242.306 56.6952 248.437 56.6952 256C56.6952 263.563 50.5657 269.692 43.0029 269.692C35.44 269.692 29.3083 263.563 29.3083 256Z" fill="white"/>
<path fill-rule="evenodd" clip-rule="evenodd" d="M43.0025 247.111C47.9114 247.111 51.8915 251.091 51.8915 256C51.8915 260.909 47.9114 264.889 43.0025 264.889C38.093 264.889 34.1135 260.909 34.1135 256C34.1135 251.091 38.093 247.111 43.0025 247.111V247.111Z" fill="white"/>
</g>
<path fill-rule="evenodd" clip-rule="evenodd" d="M1372 200C1352.67 200 1337 215.67 1337 235C1337 254.33 1352.67 270 1372 270C1391.33 270 1407 254.33 1407 235C1407 215.67 1391.33 200 1372 200ZM1364.3 216.446C1366.3 216.356 1366.93 216.333 1372 216.333H1372C1377.07 216.333 1377.7 216.356 1379.69 216.446C1381.68 216.537 1383.04 216.852 1384.23 217.313C1385.46 217.79 1386.49 218.428 1387.53 219.466C1388.57 220.503 1389.21 221.545 1389.69 222.773C1390.15 223.96 1390.46 225.316 1390.55 227.303C1390.64 229.294 1390.67 229.931 1390.67 235C1390.67 240.07 1390.64 240.704 1390.55 242.696C1390.46 244.682 1390.15 246.039 1389.69 247.226C1389.21 248.454 1388.57 249.495 1387.53 250.533C1386.5 251.571 1385.46 252.21 1384.23 252.687C1383.04 253.149 1381.68 253.463 1379.69 253.554C1377.7 253.645 1377.07 253.667 1372 253.667C1366.93 253.667 1366.29 253.645 1364.3 253.554C1362.32 253.463 1360.96 253.149 1359.77 252.687C1358.54 252.21 1357.5 251.571 1356.47 250.533C1355.43 249.495 1354.79 248.454 1354.31 247.226C1353.85 246.039 1353.54 244.682 1353.45 242.695C1353.36 240.704 1353.33 240.07 1353.33 235C1353.33 229.931 1353.36 229.294 1353.45 227.303C1353.54 225.316 1353.85 223.96 1354.31 222.772C1354.79 221.545 1355.43 220.503 1356.47 219.466C1357.5 218.428 1358.55 217.79 1359.77 217.313C1360.96 216.852 1362.32 216.537 1364.3 216.446Z" fill="white"/>
<path fill-rule="evenodd" clip-rule="evenodd" d="M1370.33 219.697C1370.65 219.697 1371 219.697 1371.38 219.697L1372 219.697C1376.99 219.697 1377.58 219.715 1379.54 219.805C1381.36 219.888 1382.35 220.192 1383.01 220.447C1383.88 220.786 1384.5 221.19 1385.16 221.844C1385.81 222.497 1386.21 223.119 1386.55 223.99C1386.81 224.648 1387.11 225.635 1387.2 227.455C1387.28 229.423 1387.3 230.014 1387.3 234.996C1387.3 239.978 1387.28 240.569 1387.2 242.537C1387.11 244.357 1386.81 245.344 1386.55 246.002C1386.21 246.873 1385.81 247.493 1385.16 248.146C1384.5 248.799 1383.88 249.204 1383.01 249.542C1382.35 249.799 1381.36 250.102 1379.54 250.185C1377.58 250.275 1376.99 250.294 1372 250.294C1367.02 250.294 1366.43 250.275 1364.46 250.185C1362.64 250.101 1361.65 249.797 1360.99 249.542C1360.12 249.203 1359.5 248.799 1358.85 248.146C1358.19 247.492 1357.79 246.872 1357.45 246C1357.19 245.343 1356.89 244.355 1356.81 242.535C1356.72 240.567 1356.7 239.976 1356.7 234.991C1356.7 230.006 1356.72 229.418 1356.81 227.451C1356.89 225.631 1357.19 224.643 1357.45 223.985C1357.79 223.114 1358.19 222.491 1358.85 221.838C1359.5 221.185 1360.12 220.78 1360.99 220.441C1361.65 220.185 1362.64 219.881 1364.46 219.798C1366.18 219.72 1366.85 219.697 1370.33 219.693V219.697ZM1381.97 222.797C1380.73 222.797 1379.73 223.799 1379.73 225.036C1379.73 226.273 1380.73 227.276 1381.97 227.276C1383.2 227.276 1384.21 226.273 1384.21 225.036C1384.21 223.799 1383.2 222.796 1381.97 222.796V222.797ZM1362.42 235C1362.42 229.706 1366.71 225.414 1372 225.414H1372C1377.3 225.414 1381.59 229.706 1381.59 235C1381.59 240.294 1377.3 244.584 1372 244.584C1366.71 244.584 1362.42 240.294 1362.42 235Z" fill="white"/>
<path fill-rule="evenodd" clip-rule="evenodd" d="M1372 228.778C1375.44 228.778 1378.22 231.563 1378.22 235C1378.22 238.436 1375.44 241.222 1372 241.222C1368.56 241.222 1365.78 238.436 1365.78 235C1365.78 231.563 1368.56 228.778 1372 228.778V228.778Z" fill="white"/>
<g opacity="0.2">
<path fill-rule="evenodd" clip-rule="evenodd" d="M1109 25C1100.72 25 1094 31.7157 1094 40C1094 48.2843 1100.72 55 1109 55C1117.28 55 1124 48.2843 1124 40C1124 31.7157 1117.28 25 1109 25ZM1105.7 32.0483C1106.56 32.0095 1106.83 32 1109 32H1109C1111.17 32 1111.44 32.0095 1112.3 32.0483C1113.15 32.0873 1113.73 32.2222 1114.24 32.42C1114.77 32.6242 1115.21 32.8975 1115.66 33.3425C1116.1 33.7872 1116.37 34.2335 1116.58 34.7597C1116.78 35.2684 1116.91 35.8497 1116.95 36.7014C1116.99 37.5547 1117 37.8274 1117 40.0001C1117 42.1728 1116.99 42.4448 1116.95 43.2981C1116.91 44.1495 1116.78 44.731 1116.58 45.2398C1116.37 45.7658 1116.1 46.2121 1115.66 46.6568C1115.21 47.1018 1114.77 47.3758 1114.24 47.5802C1113.73 47.778 1113.15 47.9128 1112.3 47.9518C1111.44 47.9907 1111.17 48.0002 1109 48.0002C1106.83 48.0002 1106.55 47.9907 1105.7 47.9518C1104.85 47.9128 1104.27 47.778 1103.76 47.5802C1103.23 47.3758 1102.79 47.1018 1102.34 46.6568C1101.9 46.2121 1101.62 45.7658 1101.42 45.2396C1101.22 44.731 1101.09 44.1496 1101.05 43.298C1101.01 42.4446 1101 42.1728 1101 40.0001C1101 37.8274 1101.01 37.5546 1101.05 36.7012C1101.09 35.8499 1101.22 35.2684 1101.42 34.7595C1101.62 34.2335 1101.9 33.7872 1102.34 33.3425C1102.79 32.8977 1103.23 32.6243 1103.76 32.42C1104.27 32.2222 1104.85 32.0873 1105.7 32.0483Z" fill="white"/>
<path fill-rule="evenodd" clip-rule="evenodd" d="M1108.28 33.4417C1108.42 33.4415 1108.57 33.4415 1108.73 33.4416L1109 33.4417C1111.14 33.4417 1111.39 33.4494 1112.23 33.4877C1113.01 33.5234 1113.44 33.6537 1113.72 33.7632C1114.09 33.9082 1114.36 34.0815 1114.64 34.3615C1114.92 34.6415 1115.09 34.9082 1115.24 35.2816C1115.35 35.5632 1115.48 35.9866 1115.51 36.7666C1115.55 37.6099 1115.56 37.8632 1115.56 39.9983C1115.56 42.1333 1115.55 42.3866 1115.51 43.23C1115.48 44.01 1115.35 44.4333 1115.24 44.715C1115.09 45.0883 1114.92 45.3542 1114.64 45.634C1114.36 45.914 1114.09 46.0873 1113.72 46.2323C1113.44 46.3423 1113.01 46.4723 1112.23 46.508C1111.39 46.5463 1111.14 46.5547 1109 46.5547C1106.86 46.5547 1106.61 46.5463 1105.77 46.508C1104.99 46.472 1104.56 46.3417 1104.28 46.2322C1103.91 46.0872 1103.64 45.9138 1103.36 45.6338C1103.08 45.3538 1102.91 45.0878 1102.76 44.7143C1102.65 44.4326 1102.52 44.0093 1102.49 43.2293C1102.45 42.386 1102.44 42.1326 1102.44 39.9963C1102.44 37.8599 1102.45 37.6079 1102.49 36.7646C1102.52 35.9846 1102.65 35.5612 1102.76 35.2792C1102.91 34.9059 1103.08 34.6392 1103.36 34.3592C1103.64 34.0792 1103.91 33.9059 1104.28 33.7605C1104.56 33.6505 1104.99 33.5205 1105.77 33.4847C1106.51 33.4514 1106.79 33.4414 1108.28 33.4397V33.4417ZM1113.27 34.77C1112.74 34.77 1112.31 35.1996 1112.31 35.7297C1112.31 36.2597 1112.74 36.6897 1113.27 36.6897C1113.8 36.6897 1114.23 36.2597 1114.23 35.7297C1114.23 35.1997 1113.8 34.7697 1113.27 34.7697V34.77ZM1104.89 40.0001C1104.89 37.7313 1106.73 35.8918 1109 35.8917C1111.27 35.8917 1113.11 37.7312 1113.11 40.0001C1113.11 42.269 1111.27 44.1076 1109 44.1076C1106.73 44.1076 1104.89 42.269 1104.89 40.0001Z" fill="white"/>
<path fill-rule="evenodd" clip-rule="evenodd" d="M1109 37.3334C1110.47 37.3334 1111.67 38.5272 1111.67 40.0001C1111.67 41.4728 1110.47 42.6668 1109 42.6668C1107.53 42.6668 1106.33 41.4728 1106.33 40.0001C1106.33 38.5272 1107.53 37.3334 1109 37.3334V37.3334Z" fill="white"/>
</g>
<path fill-rule="evenodd" clip-rule="evenodd" d="M173.043 64C156.451 64 143 77.4315 143 94C143 110.569 156.451 124 173.043 124C189.636 124 203.087 110.569 203.087 94C203.087 77.4315 189.636 64 173.043 64ZM187.408 84.7158C188.367 85.708 188.68 87.9613 188.68 87.9613C188.68 87.9613 189 90.6081 189 93.2538V95.735C189 98.3817 188.68 101.027 188.68 101.027C188.68 101.027 188.367 103.281 187.408 104.273C186.312 105.447 185.096 105.568 184.409 105.637C184.333 105.644 184.264 105.651 184.202 105.659C179.724 105.99 173 106 173 106C173 106 164.68 105.922 162.12 105.671C161.999 105.648 161.852 105.63 161.685 105.609C160.874 105.51 159.602 105.354 158.591 104.273C157.632 103.281 157.32 101.027 157.32 101.027C157.32 101.027 157 98.3817 157 95.735V93.2538C157 90.6081 157.32 87.9613 157.32 87.9613C157.32 87.9613 157.632 85.708 158.591 84.7158C159.69 83.5403 160.907 83.4203 161.594 83.3526C161.668 83.3452 161.737 83.3385 161.798 83.3311C166.276 83 172.993 83 172.993 83H173.007C173.007 83 179.724 83 184.202 83.3311C184.263 83.3385 184.332 83.3452 184.406 83.3526C185.093 83.4204 186.31 83.5405 187.408 84.7158Z" fill="white"/>
<path fill-rule="evenodd" clip-rule="evenodd" d="M169.696 98.7414L169.695 89.5535L178.341 94.1633L169.696 98.7414Z" fill="white"/>
<g opacity="0.16">
<path fill-rule="evenodd" clip-rule="evenodd" d="M1196 225C1171.15 225 1151 245.147 1151 270C1151 294.853 1171.15 315 1196 315C1220.85 315 1241 294.853 1241 270C1241 245.147 1220.85 225 1196 225ZM1217.52 256.074C1218.95 257.562 1219.42 260.942 1219.42 260.942C1219.42 260.942 1219.9 264.912 1219.9 268.881V272.602C1219.9 276.573 1219.42 280.541 1219.42 280.541C1219.42 280.541 1218.95 283.921 1217.52 285.409C1215.87 287.17 1214.05 287.352 1213.02 287.455C1212.91 287.466 1212.81 287.477 1212.71 287.488C1206.01 287.985 1195.94 288 1195.94 288C1195.94 288 1183.47 287.883 1179.64 287.506C1179.46 287.472 1179.24 287.445 1178.99 287.414C1177.77 287.265 1175.87 287.031 1174.35 285.409C1172.92 283.921 1172.45 280.541 1172.45 280.541C1172.45 280.541 1171.97 276.573 1171.97 272.602V268.881C1171.97 264.912 1172.45 260.942 1172.45 260.942C1172.45 260.942 1172.92 257.562 1174.35 256.074C1176 254.31 1177.82 254.13 1178.85 254.029C1178.96 254.018 1179.06 254.008 1179.16 253.997C1185.86 253.5 1195.92 253.5 1195.92 253.5H1195.95C1195.95 253.5 1206.01 253.5 1212.71 253.997C1212.81 254.008 1212.91 254.018 1213.02 254.029C1214.05 254.131 1215.87 254.311 1217.52 256.074Z" fill="white"/>
<path fill-rule="evenodd" clip-rule="evenodd" d="M1190.99 277.112L1190.98 263.33L1203.93 270.245L1190.99 277.112Z" fill="white"/>
</g>
<g opacity="0.16">
<path fill-rule="evenodd" clip-rule="evenodd" d="M7 0C-17.8528 0 -38 20.1472 -38 45C-38 69.8528 -17.8528 90 7 90C31.8528 90 52 69.8528 52 45C52 20.1472 31.8528 0 7 0ZM28.5159 31.0737C29.9523 32.5621 30.4212 35.942 30.4212 35.942C30.4212 35.942 30.9005 39.9121 30.9005 43.8807V47.6024C30.9005 51.5725 30.4212 55.5411 30.4212 55.5411C30.4212 55.5411 29.9523 58.9211 28.5159 60.4095C26.8737 62.1702 25.0527 62.3521 24.0234 62.455C23.9102 62.4663 23.8066 62.4766 23.7138 62.488C17.0065 62.9847 6.9351 63 6.9351 63C6.9351 63 -5.5269 62.8835 -9.36135 62.5064C-9.54303 62.4717 -9.76326 62.4446 -10.0127 62.414C-11.2273 62.2649 -13.1336 62.0309 -14.6472 60.4095C-16.0836 58.9211 -16.551 55.5411 -16.551 55.5411C-16.551 55.5411 -17.0303 51.5725 -17.0303 47.6024V43.8807C-17.0303 39.9121 -16.551 35.942 -16.551 35.942C-16.551 35.942 -16.0836 32.5621 -14.6472 31.0737C-13.0013 29.3104 -11.1786 29.1305 -10.1493 29.0288C-10.0377 29.0178 -9.93538 29.0077 -9.84366 28.9966C-3.13635 28.5 6.92461 28.5 6.92461 28.5H6.94558C6.94558 28.5 17.0065 28.5 23.7138 28.9966C23.8056 29.0077 23.9079 29.0179 24.0196 29.0289C25.0482 29.1305 26.8716 29.3107 28.5159 31.0737Z" fill="white"/>
<path fill-rule="evenodd" clip-rule="evenodd" d="M1.98587 52.1121L1.98438 38.3302L14.9347 45.2449L1.98587 52.1121Z" fill="white"/>
</g>
<g opacity="0.56">
<path fill-rule="evenodd" clip-rule="evenodd" d="M1418 19C1398.67 19 1383 34.67 1383 54C1383 73.33 1398.67 89 1418 89C1437.33 89 1453 73.33 1453 54C1453 34.67 1437.33 19 1418 19ZM1434.73 43.1684C1435.85 44.3261 1436.22 46.9549 1436.22 46.9549C1436.22 46.9549 1436.59 50.0428 1436.59 53.1294V56.0241C1436.59 59.112 1436.22 62.1987 1436.22 62.1987C1436.22 62.1987 1435.85 64.8275 1434.73 65.9851C1433.46 67.3546 1432.04 67.4961 1431.24 67.5761C1431.15 67.5849 1431.07 67.5929 1431 67.6018C1425.78 67.9881 1417.95 68 1417.95 68C1417.95 68 1408.26 67.9094 1405.27 67.6161C1405.13 67.5891 1404.96 67.5681 1404.77 67.5443C1403.82 67.4283 1402.34 67.2463 1401.16 65.9851C1400.05 64.8275 1399.68 62.1987 1399.68 62.1987C1399.68 62.1987 1399.31 59.112 1399.31 56.0241V53.1294C1399.31 50.0428 1399.68 46.9549 1399.68 46.9549C1399.68 46.9549 1400.05 44.3261 1401.16 43.1684C1402.44 41.797 1403.86 41.657 1404.66 41.578C1404.75 41.5694 1404.83 41.5616 1404.9 41.5529C1410.12 41.1667 1417.94 41.1667 1417.94 41.1667H1417.96C1417.96 41.1667 1425.78 41.1667 1431 41.5529C1431.07 41.5616 1431.15 41.5695 1431.24 41.578C1432.04 41.6571 1433.46 41.7972 1434.73 43.1684Z" fill="white"/>
<path fill-rule="evenodd" clip-rule="evenodd" d="M1414.1 59.5316L1414.1 48.8124L1424.17 54.1905L1414.1 59.5316Z" fill="white"/>
</g>
<g opacity="0.24">
<path fill-rule="evenodd" clip-rule="evenodd" d="M247 195C235.954 195 227 203.954 227 215C227 226.046 235.954 235 247 235C258.046 235 267 226.046 267 215C267 203.954 258.046 195 247 195ZM248.418 215.212V226.093H243.916V215.212H241.667V211.463H243.916V209.211C243.916 206.152 245.186 204.333 248.794 204.333H251.798V208.083H249.921C248.516 208.083 248.423 208.607 248.423 209.585L248.418 211.462H251.82L251.422 215.212H248.418Z" fill="white"/>
</g>
<g opacity="0.8">
<path fill-rule="evenodd" clip-rule="evenodd" d="M1292 94C1280.95 94 1272 102.954 1272 114C1272 125.046 1280.95 134 1292 134C1303.05 134 1312 125.046 1312 114C1312 102.954 1303.05 94 1292 94ZM1293.42 114.212V125.093H1288.92V114.212H1286.67V110.463H1288.92V108.211C1288.92 105.152 1290.19 103.333 1293.79 103.333H1296.8V107.083H1294.92C1293.52 107.083 1293.42 107.607 1293.42 108.585L1293.42 110.462H1296.82L1296.42 114.212H1293.42Z" fill="white"/>
</g>
</svg>
