<svg width="64" height="64" viewBox="0 0 64 64" fill="none" xmlns="http://www.w3.org/2000/svg">
<path d="M64 0H0V64H64V0Z" fill="#61A8DE"/>
<path d="M50.3937 14.1277L7.59609 30.8054C6.20987 31.3457 6.29384 33.3349 7.72079 33.7562L18.5961 36.9677L22.6548 49.8463C23.0788 51.1915 24.7835 51.5993 25.7703 50.5917L31.3931 44.8505L42.4256 52.9486C43.7757 53.9396 45.6986 53.2033 46.0414 51.5641L53.3483 16.6298C53.7061 14.9186 52.0226 13.4929 50.3937 14.1277ZM45.028 21.8804L25.1488 39.4597C24.9506 39.6349 24.8245 39.8774 24.795 40.1403L24.0296 46.9441C24.0046 47.1659 23.6941 47.1953 23.6279 46.9821L20.4789 36.8354C20.3347 36.3708 20.5227 35.8675 20.936 35.6112L44.4114 21.0516C44.9512 20.7165 45.5039 21.4597 45.028 21.8804Z" fill="white"/>
<rect x="0.5" y="0.5" width="63" height="63" rx="8.5" stroke="white"/>
</svg>
