<svg width="40" height="40" viewBox="0 0 40 40" fill="none" xmlns="http://www.w3.org/2000/svg">
<path d="M32.8455 39.3152C24.2905 40.2283 15.7095 40.2283 7.15454 39.3152C3.74329 38.9511 1.04889 36.2567 0.684814 32.8452C-0.228271 24.2902 -0.228271 15.7095 0.684814 7.15454C1.04889 3.74329 3.74329 1.04889 7.15454 0.684814C15.7095 -0.228271 24.2902 -0.228271 32.8452 0.684814C36.2567 1.04889 38.9511 3.74329 39.3152 7.15454C40.2283 15.7095 40.2283 24.2902 39.3152 32.8452C38.9511 36.2567 36.257 38.9511 32.8455 39.3152Z" fill="url(#paint0_linear)"/>
<path d="M37.1394 8.60141C36.8165 5.57437 34.4258 3.18332 31.3984 2.86014C23.8069 2.0502 16.1927 2.0502 8.60117 2.86014C5.57413 3.18332 3.18307 5.57437 2.85989 8.60141C2.04996 16.193 2.04996 23.8071 2.85989 31.3983C3.18307 34.4257 5.57413 36.8167 8.60117 37.1396C16.1927 37.9499 23.8069 37.9499 31.3981 37.1396C34.4254 36.8167 36.8165 34.4257 37.1394 31.3983C37.9496 23.8071 37.9496 16.193 37.1394 8.60141Z" fill="url(#paint1_linear)"/>
<path d="M0.599609 32.016C0.627075 32.2925 0.655457 32.569 0.685059 32.8455C1.04913 36.2567 3.74353 38.9511 7.15509 39.3152C15.7101 40.2283 24.2907 40.2283 32.8457 39.3152C36.2573 38.9511 38.9514 36.2567 39.3154 32.8455C39.345 32.569 39.3734 32.2925 39.4012 32.016H0.599609Z" fill="url(#paint2_linear)"/>
<path d="M32.8456 39.3153C36.2572 38.9512 38.9513 36.2568 39.3154 32.8452C39.7148 29.1044 39.9395 25.3587 39.9895 21.612L31.3005 12.9234C30.8544 12.3704 30.4509 12.3191 29.6147 12.1558C28.9373 12.0234 28.2442 11.9331 27.5548 11.9059C25.3505 11.8189 23.1447 11.7362 20.9389 11.7152C17.7001 11.6843 14.4606 11.695 11.2346 12.0698C9.84363 12.2312 8.3733 13.3222 8.21552 14.8093C8.13465 15.5735 7.99427 16.3334 7.95063 17.0994C7.79102 19.889 7.75776 22.6771 8.14777 25.4557C8.27839 26.3862 8.42212 26.8119 9.04926 27.3307L21.7064 39.9879C25.4213 39.9351 29.1359 39.7111 32.8456 39.3153Z" fill="url(#paint3_linear)"/>
<path d="M20.6856 28.6097C17.4568 28.5014 14.9577 28.4397 12.4617 28.3207C11.7 28.2841 10.916 28.1806 10.1945 27.9463C8.8667 27.5154 8.10926 26.5443 7.91242 25.142C7.5224 22.3634 7.55567 19.5753 7.71528 16.7857C7.75922 16.0197 7.8996 15.2598 7.98047 14.4956C8.13764 13.0085 9.60828 11.9172 10.9993 11.7561C14.2256 11.3813 17.4647 11.3706 20.7039 11.4014C22.9097 11.4225 25.1152 11.5052 27.3195 11.5922C28.0089 11.6193 28.7019 11.71 29.3794 11.8421C30.8723 12.1336 31.736 13.0674 31.999 14.5673C32.3549 16.5968 32.4479 18.6457 32.3732 20.6956C32.3167 22.2471 32.1568 23.7962 31.996 25.3416C31.8184 27.0472 30.3416 28.0573 29.0117 28.1449C25.9974 28.3436 22.9799 28.4846 20.6856 28.6097Z" fill="url(#paint4_linear)"/>
<path d="M17.6406 23.7735C19.725 22.4939 21.7584 21.2448 23.8528 19.9588C21.7626 18.6743 19.7296 17.4249 17.6406 16.1414V23.7735Z" fill="white"/>
<defs>
<linearGradient id="paint0_linear" x1="9.09941" y1="-1.00038" x2="37.9215" y2="54.5263" gradientUnits="userSpaceOnUse">
<stop stop-color="#FFFCF8"/>
<stop offset="0.1875" stop-color="#FAF8F6"/>
<stop offset="0.4041" stop-color="#ECEEF2"/>
<stop offset="0.6353" stop-color="#D5DCEA"/>
<stop offset="0.875" stop-color="#B5C4DF"/>
<stop offset="1" stop-color="#A1B5D8"/>
</linearGradient>
<linearGradient id="paint1_linear" x1="15.3414" y1="17.3797" x2="-52.4233" y2="-20.738" gradientUnits="userSpaceOnUse">
<stop stop-color="#A1B5D8" stop-opacity="0"/>
<stop offset="0.3094" stop-color="#90A2BD" stop-opacity="0.309804"/>
<stop offset="0.7554" stop-color="#7C8B9C" stop-opacity="0.756863"/>
<stop offset="1" stop-color="#748290"/>
</linearGradient>
<linearGradient id="paint2_linear" x1="20.0003" y1="35.3099" x2="20.0003" y2="41.5448" gradientUnits="userSpaceOnUse">
<stop stop-color="#A1B5D8" stop-opacity="0"/>
<stop offset="0.3094" stop-color="#90A2BD" stop-opacity="0.309804"/>
<stop offset="0.7554" stop-color="#7C8B9C" stop-opacity="0.756863"/>
<stop offset="1" stop-color="#748290"/>
</linearGradient>
<linearGradient id="paint3_linear" x1="33.0866" y1="33.0403" x2="5.64516" y2="5.59889" gradientUnits="userSpaceOnUse">
<stop stop-color="#A1B5D8" stop-opacity="0"/>
<stop offset="0.3094" stop-color="#90A2BD" stop-opacity="0.309804"/>
<stop offset="0.7554" stop-color="#7C8B9C" stop-opacity="0.756863"/>
<stop offset="1" stop-color="#748290"/>
</linearGradient>
<linearGradient id="paint4_linear" x1="18.4874" y1="15.6165" x2="22.1608" y2="26.3126" gradientUnits="userSpaceOnUse">
<stop stop-color="#E52D27"/>
<stop offset="1" stop-color="#B31217"/>
</linearGradient>
</defs>
</svg>
